<svg width="36" height="36" xmlns="http://www.w3.org/2000/svg">

 <g>
  <title>background</title>
  <rect fill="none" id="canvas_background" height="38" width="38" y="-1" x="-1"/>
 </g>
 <g>
  <title>Layer 1</title>
  <g id="svg_469">
   <path id="svg_470" d="m0,9.1q0,-9.1 9.1,-9.1l17.8,0q9.1,0 9.1,9.1l0,17.85q0,4.5 -2.35,6.7q-2.25,2.35 -6.75,2.35l-17.8,0q-4.5,0 -6.75,-2.35q-2.35,-2.2 -2.35,-6.7l0,-17.85m2,0l0,17.85q0,7.05 7.1,7.05l17.8,0q7.1,0 7.1,-7.05l0,-17.85q0,-7.1 -7.1,-7.1l-17.8,0q-7.1,0 -7.1,7.1" fill="#999999"/>
   <path id="svg_471" d="m2,9.1q0,-7.1 7.1,-7.1l17.8,0q7.1,0 7.1,7.1l0,17.85q0,7.05 -7.1,7.05l-17.8,0q-7.1,0 -7.1,-7.05l0,-17.85m2,17.85q0,5.05 5.1,5.05l17.8,0q5.1,0 5.1,-5.05l0,-17.85q0,-5.1 -5.1,-5.1l-17.8,0q-5.1,0 -5.1,5.1l0,17.85" fill="#FFFFFF"/>
   <path id="svg_472" d="m4,26.95l0,-17.85q0,-5.1 5.1,-5.1l17.8,0q5.1,0 5.1,5.1l0,17.85q0,5.05 -5.1,5.05l-17.8,0q-5.1,0 -5.1,-5.05" fill="#EEEEEE"/>
   <path id="svg_473" d="m9.2,12.2l3.05,-3.05q0.35,-0.35 0.75,0l5,5.05l5.05,-5.05q0.4,-0.35 0.75,0l3.05,3.05q0.4,0.4 0,0.75l-5,5.05l5,5q0.4,0.35 0,0.75l-3,3l-0.8,0.05l-5,-5.05l-5.05,5q-0.4,0.4 -0.8,0l-3,-3q-0.4,-0.4 0,-0.75l5.05,-5l-5.05,-5.05q-0.35,-0.35 0,-0.75" fill="#999999"/>
  </g>
 </g>
</svg>